<svg xmlns="http://www.w3.org/2000/svg" xmlns:xlink="http://www.w3.org/1999/xlink" zoomAndPan="magnify" viewBox="0 0 375 374.999991" preserveAspectRatio="xMidYMid meet" version="1.0">

<g clip-path="url(#a0a9f22258)">
<g clip-path="url(#3d8306c229)">
<g clip-path="url(#d88bf7dceb)">
<path fill="#ffffff" d="M 110.300781 217.308594 C 113.710938 206.046875 117.460938 194.882812 120.894531 183.632812 C 121.925781 180.238281 120.453125 175.589844 116.722656 174.621094 C 115.105469 173.972656 112.949219 175.535156 113.449219 177.3125 C 113.507812 178.765625 115.121094 179.105469 116.175781 179.59375 C 116.410156 180.558594 116.917969 181.585938 116.414062 182.570312 C 116.035156 183.777344 115.648438 184.984375 115.269531 186.1875 L 59.457031 180.03125 C 58.355469 179.910156 57.359375 180.707031 57.238281 181.808594 C 57.117188 182.914062 57.914062 183.90625 59.015625 184.027344 L 114.035156 190.09375 C 111.714844 197.410156 109.382812 204.722656 107.082031 212.046875 C 106.585938 213.570312 106.175781 215.148438 105.355469 216.546875 C 104.132812 216.871094 102.84375 216.496094 101.613281 216.421875 C 87.105469 214.78125 72.589844 213.214844 58.085938 211.605469 C 56.128906 195.5 54.222656 179.390625 52.261719 163.28125 C 52.117188 160.265625 49.882812 157.257812 46.71875 157.019531 C 42.953125 156.621094 39.195312 156.027344 35.410156 155.878906 C 33.257812 156.359375 32.921875 159.417969 34.867188 160.417969 C 38.792969 161.230469 42.851562 161.195312 46.78125 161.964844 C 47.683594 162.535156 47.359375 163.832031 47.632812 164.734375 C 49.910156 183.875 52.226562 203.015625 54.582031 222.15625 C 54.8125 225.261719 57.449219 228.007812 60.632812 228.054688 C 76.132812 229.738281 91.621094 231.527344 107.121094 233.140625 C 110.066406 233.5625 110.621094 228.683594 107.65625 228.429688 C 93.769531 226.800781 79.855469 225.339844 65.960938 223.789062 C 63.875 223.511719 61.730469 223.519531 59.714844 222.875 C 59.007812 220.832031 59 218.632812 58.675781 216.519531 C 73.613281 218.167969 88.550781 219.824219 103.488281 221.464844 C 106.363281 222.03125 109.546875 220.160156 110.300781 217.308594 Z M 110.300781 217.308594 " fill-opacity="1" fill-rule="nonzero"/>
</g>
</g>
</g>
<g clip-path="url(#492334bd34)">
<g clip-path="url(#664f098f0c)">
<g clip-path="url(#78ffd92f55)">
<path fill="#ffffff" d="M 62.148438 230.007812 C 59.355469 230.238281 56.832031 232.265625 56.003906 234.9375 C 54.695312 238.601562 56.925781 243.003906 60.679688 244.070312 C 64.535156 245.417969 69.121094 242.835938 69.902344 238.824219 C 71.171875 234.21875 66.886719 229.339844 62.148438 230.007812 Z M 64.699219 238.71875 C 63.792969 239.894531 61.816406 239.929688 60.976562 238.648438 C 59.777344 237.328125 60.765625 235.058594 62.464844 234.828125 C 64.515625 234.292969 66.273438 237.21875 64.699219 238.71875 Z M 64.699219 238.71875 " fill-opacity="1" fill-rule="nonzero"/>
</g>
</g>
</g>
<g clip-path="url(#a3feacb228)">
<g clip-path="url(#472b305b66)">
<g clip-path="url(#bfbf1d5fdb)">
<path fill="#ffffff" d="M 97.40625 233.878906 C 92.082031 234.101562 88.910156 240.921875 92.085938 245.160156 C 94.878906 249.621094 102.367188 249.164062 104.519531 244.324219 C 107.179688 239.5625 102.824219 233.132812 97.40625 233.878906 Z M 99.140625 243.195312 C 96.472656 244.832031 94.09375 240.164062 96.960938 238.945312 C 99.628906 237.300781 102.027344 241.976562 99.140625 243.195312 Z M 99.140625 243.195312 " fill-opacity="1" fill-rule="nonzero"/>
</g>
</g>
</g>
<g fill="#ffffff" fill-opacity="1">
<g transform="translate(85.594011, 178.942051)">
<g>
<path d="M 78.261719 -6.929688 C 78.78125 -13.695312 78.996094 -20.671875 79.257812 -27.390625 L 79.457031 -32.449219 C 79.699219 -40.835938 79.039062 -47.515625 77.296875 -53.59375 C 76.242188 -56.828125 74.316406 -59.179688 71.765625 -60.03125 C 69.226562 -60.964844 66.308594 -60.371094 63.457031 -58.429688 C 61.882812 -57.3125 60.441406 -55.929688 59.257812 -54.589844 C 56.933594 -51.660156 54.867188 -48.777344 53.136719 -45.929688 C 51.546875 -43.484375 50.097656 -40.847656 48.558594 -38.144531 C 47.886719 -36.902344 47.214844 -35.660156 46.460938 -34.429688 L 45.554688 -32.722656 L 44.894531 -34.5625 C 44.269531 -36.070312 43.792969 -37.46875 43.25 -38.960938 C 42.113281 -42.203125 41.039062 -45.269531 39.695312 -48.210938 C 37.359375 -53.035156 35.40625 -56.390625 33.117188 -59.125 C 31.753906 -60.730469 30.054688 -61.71875 28.335938 -61.957031 C 28.011719 -62 27.589844 -61.976562 27.261719 -62.019531 C 25.078125 -61.90625 22.910156 -60.707031 21.367188 -58.582031 C 19.519531 -56.085938 18.046875 -53.289062 17.089844 -50.585938 C 12.984375 -38.394531 9.066406 -26.347656 5.4375 -14.589844 C 4.574219 -11.957031 4.144531 -8.847656 4.171875 -5.425781 C 4.113281 -2.015625 6.394531 0.800781 9.65625 1.335938 C 12.824219 1.941406 15.734375 0.175781 17.183594 -3.042969 C 17.921875 -4.773438 18.359375 -6.714844 18.863281 -8.5625 C 20.242188 -14.292969 21.605469 -19.941406 23.054688 -25.578125 C 24.039062 -29.695312 25.015625 -33.730469 25.988281 -37.765625 C 26.230469 -38.898438 26.632812 -40.007812 26.945312 -41.050781 L 27.796875 -44.183594 L 28.875 -42.953125 C 29.816406 -41.90625 30.179688 -40.9375 30.394531 -40.074219 C 30.90625 -38.335938 31.402344 -36.515625 31.902344 -34.695312 C 32.839844 -31.230469 33.757812 -27.601562 34.847656 -24.03125 C 35.828125 -20.890625 36.789062 -17.589844 38.308594 -14.710938 C 39.628906 -12.195312 41.75 -10.648438 44.214844 -10.390625 C 46.695312 -10.214844 49.1875 -11.371094 51.011719 -13.703125 C 52.417969 -15.425781 53.460938 -17.535156 54.574219 -19.550781 L 54.6875 -19.78125 C 56.507812 -23.285156 58.328125 -26.785156 60.15625 -30.367188 C 61.1875 -32.394531 62.21875 -34.417969 63.25 -36.445312 C 63.574219 -36.980469 63.898438 -37.519531 64.210938 -37.976562 L 65.613281 -40.285156 L 66.183594 -38.371094 C 66.597656 -37.148438 66.53125 -36.074219 66.398438 -35.089844 C 66.148438 -33.289062 65.898438 -31.492188 65.660156 -29.773438 C 65.058594 -26.019531 64.445312 -22.183594 64.167969 -18.386719 C 63.664062 -11.121094 63.585938 -5.125 63.890625 0.503906 C 64.140625 4.125 66.871094 6.085938 69.417969 6.355469 C 72.375 6.679688 75.03125 4.964844 76.207031 1.875 C 77.363281 -1.050781 78.121094 -4.117188 78.261719 -6.929688 Z M 78.261719 -6.929688 "/>
</g>
</g>
</g>
<g fill="#ffffff" fill-opacity="1"><g transform="translate(172.921813, 172.159405)"><g><path d="M 30.339844 -23.425781 C 28.402344 -24.800781 26.085938 -24.355469 24.027344 -22.136719 C 21.75 -19.671875 19.578125 -17.128906 17.402344 -14.585938 C 16.539062 -13.59375 15.671875 -12.597656 14.570312 -11.246094 C 14.15625 -12.46875 13.839844 -13.269531 13.589844 -14.117188 C 12.839844 -17.007812 12.21875 -19.988281 11.414062 -22.886719 C 11.03125 -24.273438 10.347656 -25.601562 8.542969 -25.460938 C 6.917969 -25.347656 6.28125 -24.027344 6.144531 -22.617188 C 5.847656 -20.316406 5.359375 -17.875 5.695312 -15.578125 C 6.320312 -11.332031 7.363281 -7.1875 8.460938 -3.03125 C 8.753906 -1.773438 8.558594 -1.003906 7.871094 -0.0351562 C 6.011719 2.675781 4.152344 5.386719 2.449219 8.183594 C 1.796875 9.273438 1.382812 10.636719 1.097656 11.90625 C 0.8125 13.519531 1.332031 15.105469 2.832031 15.714844 C 4.074219 16.167969 5.714844 16.285156 6.9375 15.871094 C 8.085938 15.558594 9.035156 14.40625 9.789062 13.394531 C 15.011719 6.628906 20.230469 -0.136719 25.25 -7.050781 C 27.53125 -10.203125 29.511719 -13.585938 31.386719 -17.039062 C 32.773438 -19.664062 32.230469 -22.113281 30.339844 -23.425781 Z M 30.339844 -23.425781 "/></g></g></g><g fill="#ffffff" fill-opacity="1"><g transform="translate(202.86272, 177.481008)"><g/>
</g>
</g>
<g fill="#ffffff" fill-opacity="1">
<g transform="translate(121.009161, 231.051497)">
<g>
<path d="M 31.367188 -14.105469 C 30.023438 -19.664062 26.277344 -23.585938 19.957031 -26.101562 C 17.734375 -27.039062 15.566406 -28.324219 13.519531 -29.554688 L 12.230469 -30.375 C 11.414062 -30.84375 11.003906 -31.484375 11.003906 -32.1875 C 11.003906 -32.949219 11.46875 -33.59375 12.289062 -34.0625 C 13.695312 -34.878906 15.390625 -35.757812 17.148438 -36.109375 C 20.953125 -36.988281 24.464844 -35.816406 26.804688 -34.878906 C 27.742188 -34.46875 28.5 -34.46875 28.910156 -34.761719 C 29.496094 -35.171875 29.613281 -36.050781 29.554688 -36.753906 C 29.496094 -37.746094 29.203125 -38.800781 28.675781 -39.621094 C 27.390625 -41.785156 25.339844 -43.191406 22.648438 -43.835938 C 16.5625 -45.238281 11.003906 -43.953125 6.203125 -40.03125 C 3.746094 -37.980469 2.28125 -35.289062 2.164062 -32.421875 C 1.988281 -29.554688 3.160156 -26.628906 5.441406 -24.347656 C 8.71875 -21.011719 12.289062 -18.785156 16.386719 -17.558594 C 18.375 -16.972656 20.425781 -16.035156 21.417969 -13.578125 L 21.710938 -12.933594 L 19.78125 -12.40625 C 17.441406 -11.703125 15.273438 -12.289062 13.167969 -12.875 C 12.640625 -13.050781 12.113281 -13.167969 11.585938 -13.285156 C 11.003906 -13.460938 10.417969 -13.519531 9.890625 -13.519531 C 7.84375 -13.519531 6.144531 -12.640625 5.207031 -11.0625 C 4.039062 -9.070312 4.507812 -6.4375 6.378906 -4.390625 C 8.136719 -2.457031 11.003906 -0.175781 14.691406 -0.351562 C 18.785156 -0.527344 22.238281 -1.054688 25.105469 -2.046875 C 30.257812 -3.804688 32.714844 -8.542969 31.367188 -14.105469 Z M 31.367188 -14.105469 "/></g></g></g><g fill="#ffffff" fill-opacity="1">
<g transform="translate(154.951692, 231.051497)">
<g>
<path d="M 33.183594 -43.074219 C 32.714844 -43.191406 32.246094 -43.308594 31.71875 -43.367188 C 29.730469 -43.601562 27.742188 -43.71875 25.75 -43.71875 C 21.710938 -43.71875 17.675781 -43.308594 13.753906 -42.839844 C 11.296875 -42.605469 8.777344 -42.3125 6.261719 -42.136719 C 6.203125 -42.136719 6.144531 -42.078125 6.027344 -42.078125 L 5.851562 -42.019531 C 3.394531 -41.316406 2.046875 -39.855469 2.164062 -37.804688 C 2.222656 -35.875 3.570312 -34.527344 6.027344 -33.945312 C 6.613281 -33.828125 7.199219 -33.769531 7.84375 -33.710938 C 9.1875 -33.535156 10.535156 -33.417969 11.878906 -33.300781 L 13.8125 -33.066406 L 13.871094 -32.070312 C 13.871094 -31.777344 13.871094 -31.542969 13.871094 -31.25 C 13.871094 -29.203125 13.8125 -27.15625 13.753906 -25.105469 C 13.636719 -20.074219 13.578125 -14.921875 13.578125 -9.832031 C 13.578125 -8.019531 13.929688 -6.027344 14.632812 -4.214844 C 15.332031 -2.398438 16.914062 -1.347656 19.019531 -1.347656 C 21.070312 -1.347656 22.648438 -2.398438 23.351562 -4.332031 C 23.9375 -5.792969 24.230469 -7.375 24.171875 -8.777344 C 24.054688 -12.640625 23.644531 -16.445312 23.292969 -19.664062 C 22.941406 -22.648438 22.53125 -25.632812 22.121094 -28.734375 C 21.886719 -30.140625 21.710938 -31.601562 21.535156 -33.066406 L 21.417969 -33.769531 L 26.804688 -33.769531 C 27.390625 -33.769531 27.972656 -33.769531 28.558594 -33.710938 C 29.789062 -33.710938 31.132812 -33.710938 32.363281 -33.769531 C 34.878906 -34.003906 36.753906 -35.699219 36.988281 -38.039062 C 37.164062 -40.324219 35.699219 -42.3125 33.183594 -43.074219 Z M 33.183594 -43.074219 "/></g></g></g><g fill="#ffffff" fill-opacity="1">
<g transform="translate(194.161158, 231.051497)">
<g>
<path d="M 24.871094 -43.601562 C 24.578125 -43.660156 24.289062 -43.660156 23.9375 -43.660156 C 23.351562 -43.660156 22.707031 -43.601562 22.0625 -43.484375 L 21.476562 -43.425781 C 12.40625 -42.253906 6.4375 -37.164062 3.21875 -27.855469 C 1.289062 -22.296875 1.929688 -15.332031 4.859375 -10.183594 C 7.492188 -5.617188 11.820312 -2.574219 17.324219 -1.464844 L 17.5 -1.40625 C 18.375 -1.230469 19.253906 -1.054688 20.132812 -0.9375 C 26.21875 -0.234375 31.019531 -1.988281 34.761719 -6.4375 L 35.933594 -7.726562 C 36.871094 -8.835938 37.863281 -10.007812 38.800781 -11.121094 C 41.433594 -14.28125 42.898438 -18.199219 43.367188 -23.527344 C 42.605469 -36.753906 35.40625 -41.082031 24.871094 -43.601562 Z M 32.714844 -22.589844 C 32.480469 -22.0625 32.246094 -21.535156 32.011719 -20.953125 C 31.425781 -19.664062 30.84375 -18.375 30.082031 -17.089844 C 29.554688 -16.210938 28.851562 -15.507812 28.207031 -14.804688 C 27.914062 -14.515625 27.625 -14.222656 27.390625 -13.929688 C 25.75 -12.171875 23.527344 -11.179688 21.128906 -11.179688 C 20.542969 -11.179688 20.015625 -11.238281 19.429688 -11.355469 C 16.328125 -11.9375 13.8125 -14.105469 12.699219 -17.089844 C 11.0625 -21.652344 11.820312 -25.984375 15.039062 -30.785156 C 17.089844 -33.886719 19.371094 -34.410156 22.765625 -32.65625 C 24.054688 -32.011719 25.398438 -31.367188 27.097656 -30.726562 C 30.785156 -29.203125 32.304688 -27.15625 32.773438 -22.941406 L 32.773438 -22.765625 Z M 32.714844 -22.589844 "/></g></g></g><g fill="#ffffff" fill-opacity="1"><g transform="translate(239.749482, 231.051497)"><g><path d="M 34.0625 -12.054688 C 32.1875 -13.109375 30.433594 -14.222656 28.558594 -15.390625 C 27.742188 -15.917969 26.863281 -16.445312 26.042969 -16.972656 L 25.164062 -17.5 L 26.042969 -18.082031 C 26.6875 -18.433594 27.273438 -18.84375 27.855469 -19.195312 C 29.027344 -19.898438 30.140625 -20.601562 31.132812 -21.359375 C 35.40625 -24.636719 36.988281 -28.792969 35.992188 -33.652344 C 34.878906 -38.859375 31.542969 -42.3125 26.394531 -43.542969 C 21.535156 -44.710938 16.914062 -44.476562 12.699219 -42.78125 C 12.347656 -42.664062 11.355469 -42.3125 10.476562 -42.605469 C 9.539062 -42.957031 8.71875 -43.132812 8.078125 -43.132812 C 7.492188 -43.132812 6.964844 -42.957031 6.554688 -42.722656 C 5.675781 -42.253906 5.089844 -41.140625 4.742188 -39.445312 C 2.398438 -27.097656 1.636719 -15.917969 2.457031 -5.382812 C 2.632812 -2.632812 4.214844 -0.820312 6.4375 -0.761719 C 8.777344 -0.703125 10.300781 -2.398438 10.652344 -5.207031 C 10.886719 -6.789062 11.003906 -8.425781 11.179688 -10.125 L 11.527344 -13.519531 L 12.347656 -13.109375 C 12.640625 -12.933594 12.933594 -12.816406 13.167969 -12.699219 C 13.636719 -12.464844 14.046875 -12.289062 14.398438 -12.054688 C 15.683594 -11.355469 16.914062 -10.59375 18.140625 -9.832031 C 20.484375 -8.367188 22.882812 -6.90625 25.28125 -5.5 C 27.097656 -4.449219 28.96875 -3.394531 30.902344 -2.867188 C 33.535156 -2.105469 36.226562 -3.511719 37.105469 -6.085938 C 38.097656 -9.128906 35.992188 -11.003906 34.0625 -12.054688 Z M 12.757812 -25.574219 L 11.9375 -25.457031 L 11.996094 -26.277344 C 12.113281 -26.980469 12.113281 -27.742188 12.054688 -28.441406 C 12.054688 -30.609375 11.996094 -32.832031 14.398438 -34.46875 C 17.441406 -36.460938 20.894531 -36.8125 24.753906 -35.523438 C 25.984375 -35.113281 26.746094 -34.292969 26.863281 -33.300781 C 27.039062 -32.1875 26.453125 -31.019531 25.28125 -30.257812 C 21.710938 -27.742188 17.617188 -26.21875 12.757812 -25.574219 Z M 12.757812 -25.574219 "/>
</g>
</g>
</g>
<g fill="#ffffff" fill-opacity="1">
<g transform="translate(279.310087, 231.051497)">
<g><path d="M 25.984375 -10.59375 C 25.164062 -10.535156 24.347656 -10.359375 23.527344 -10.125 C 22.882812 -9.890625 22.179688 -9.714844 21.535156 -9.597656 C 18.84375 -9.1875 16.445312 -8.894531 14.222656 -8.777344 C 13.695312 -8.71875 13.167969 -9.128906 12.933594 -9.363281 C 12.699219 -9.597656 12.230469 -10.007812 12.230469 -10.535156 C 12.113281 -12.171875 12.113281 -13.871094 12.113281 -15.507812 C 12.113281 -16.09375 12.113281 -16.679688 12.113281 -17.207031 L 12.113281 -17.851562 L 12.757812 -17.851562 C 13.871094 -17.910156 14.980469 -17.964844 16.09375 -18.023438 C 18.785156 -18.140625 21.359375 -18.257812 23.9375 -18.492188 C 25.164062 -18.609375 26.570312 -19.019531 27.914062 -19.664062 C 29.027344 -20.191406 30.257812 -21.300781 30.140625 -23.234375 C 29.964844 -24.871094 28.96875 -26.042969 27.390625 -26.394531 C 25.574219 -26.804688 23.46875 -26.921875 21.300781 -26.746094 C 19.605469 -26.570312 17.851562 -26.21875 16.035156 -25.867188 C 15.214844 -25.691406 14.398438 -25.515625 13.519531 -25.398438 L 12.757812 -25.28125 L 12.757812 -28.148438 C 12.757812 -29.671875 12.757812 -31.132812 12.816406 -32.597656 C 12.816406 -34.121094 12.816406 -34.878906 13.34375 -35.40625 C 13.871094 -35.875 14.632812 -35.875 16.09375 -35.816406 L 17.617188 -35.699219 C 20.015625 -35.582031 22.472656 -35.464844 24.871094 -35.582031 C 28.675781 -35.816406 31.191406 -37.980469 31.074219 -40.90625 C 31.074219 -42.195312 30.492188 -43.425781 29.496094 -44.300781 C 28.382812 -45.296875 26.863281 -45.882812 25.105469 -45.882812 C 24.929688 -45.882812 24.753906 -45.882812 24.636719 -45.882812 C 20.953125 -45.648438 17.207031 -45.121094 13.636719 -44.59375 L 11.0625 -44.242188 C 10.183594 -44.125 9.1875 -43.660156 8.425781 -43.25 C 6.027344 -41.902344 5.148438 -40.324219 5.617188 -38.097656 C 5.675781 -37.628906 5.617188 -37.105469 5.5 -36.636719 L 5.5 -36.34375 C 5.207031 -34.703125 4.859375 -33.007812 4.566406 -31.308594 C 3.980469 -27.796875 3.277344 -24.171875 2.808594 -20.542969 C 2.164062 -16.269531 1.636719 -11.296875 2.984375 -6.4375 C 4.039062 -2.632812 6.320312 -0.351562 9.773438 0.351562 C 15.683594 1.582031 21.1875 0.9375 26.160156 -1.523438 C 27.273438 -2.046875 28.324219 -2.867188 29.203125 -3.804688 C 30.550781 -5.265625 30.902344 -6.847656 30.140625 -8.425781 C 29.203125 -10.417969 27.332031 -10.710938 25.984375 -10.59375 Z M 25.984375 -10.59375 "/>
</g>
</g>
</g>
</svg>